<?xml version="1.0" encoding="UTF-8"?>
<svg version="1.1" xmlns="http://www.w3.org/2000/svg" width="3264" height="3264">
<path d="M0 0 C1077.12 0 2154.24 0 3264 0 C3264 1077.12 3264 2154.24 3264 3264 C2186.88 3264 1109.76 3264 0 3264 C0 2186.88 0 1109.76 0 0 Z " fill="#000000" transform="translate(0,0)"/>
<path d="M0 0 C596.64 0 1193.28 0 1808 0 C1808 495 1808 990 1808 1500 C1395.17 1500 982.34 1500 557 1500 C557 1335 557 1170 557 1000 C565.34827917 994.86259743 573.68809194 989.80655105 582.1875 984.9375 C583.88831853 983.9595355 585.58913539 982.98156809 587.28985596 982.00343323 C589.03679182 980.99905965 590.78420558 979.9955222 592.53173828 978.9921875 C598.06620904 975.81315882 603.59603289 972.62608873 609.125 969.4375 C610.73991333 968.50635376 610.73991333 968.50635376 612.38745117 967.55639648 C619.60398496 963.39194672 626.80607427 959.20336556 634 955 C642.27782131 950.16332107 650.56943076 945.35138058 658.875 940.5625 C659.95595947 939.93915771 661.03691895 939.31581543 662.15063477 938.67358398 C667.58903137 935.53883184 673.02965209 932.40799464 678.47265625 929.28125 C689.48540477 922.94925251 700.45941072 916.56074114 711.375 910.0625 C721.76184463 903.88017668 732.22016152 897.83934117 742.72558594 891.86181641 C751.20440683 887.03611628 759.64290794 882.14521851 768.06323242 877.21826172 C775.35954574 872.95093777 782.67528197 868.7183643 790 864.5 C798.34802448 859.69155277 806.68248303 854.86102905 815 850 C824.4099033 844.50054464 833.84470563 839.04550804 843.2890625 833.60546875 C850.53951541 829.42650842 857.77483863 825.22252011 865 821 C878.73046817 812.97718322 892.51078086 805.04141672 906.29101562 797.10449219 C918.8676392 789.85966952 931.43036957 782.5926719 943.96142578 775.26928711 C952.36887484 770.35930927 960.79830011 765.48801881 969.24072266 760.63842773 C974.79548639 757.44362134 980.32995356 754.21967633 985.8359375 750.94140625 C987.48335937 749.96494141 987.48335937 749.96494141 989.1640625 748.96875 C991.25954178 747.7247185 993.35090531 746.47372039 995.4375 745.21484375 C996.37335937 744.66054687 997.30921875 744.10625 998.2734375 743.53515625 C999.09247559 743.044104 999.91151367 742.55305176 1000.75537109 742.04711914 C1003 741 1003 741 1007 741 C1007 681.93 1007 622.86 1007 562 C939.68 562 872.36 562 803 562 C803 626.68 803 691.36 803 758 C795.12558778 758 795.12558778 758 791.48144531 756.75341797 C790.65820267 756.47776001 789.83496002 756.20210205 788.98677063 755.91809082 C788.10941757 755.61254272 787.23206451 755.30699463 786.328125 754.9921875 C784.91898079 754.51622131 784.91898079 754.51622131 783.48136902 754.03063965 C780.40094355 752.98821879 777.32559508 751.93157805 774.25 750.875 C771.01497002 749.77611474 767.77867941 748.6810047 764.54222107 747.58633423 C762.32875317 746.8376109 760.11567244 746.08774207 757.90296936 745.33676147 C750.55062828 742.8455021 743.1813279 740.4134712 735.79296875 738.03125 C734.8271286 737.71954865 733.86128845 737.40784729 732.86618042 737.08670044 C729.16904174 735.89500617 725.47140077 734.70500106 721.77087402 733.52386475 C712.30221052 730.5000989 703.04474005 727.28641126 693.84594727 723.51416016 C686.28330376 720.47689363 678.48785403 718.04596885 670.75 715.5 C668.90315433 714.8888461 667.05639522 714.27743056 665.2097168 713.66577148 C659.47580432 711.76906237 653.73832133 709.88332174 648 708 C647.10210754 707.70506653 646.20421509 707.41013306 645.27911377 707.10626221 C627.50324584 701.26862631 609.70944677 695.48892125 591.87890625 689.8203125 C590.78965347 689.47381149 589.7004007 689.12731049 588.57814026 688.77030945 C583.25778567 687.07846781 577.93622121 685.39060141 572.61254883 683.70922852 C570.69740452 683.10180049 568.78228286 682.49430106 566.8671875 681.88671875 C565.9808815 681.60825104 565.0945755 681.32978333 564.18141174 681.0428772 C558.1132514 679.1132514 558.1132514 679.1132514 557 678 C556.90230776 676.07653048 556.8762869 674.14941269 556.87695217 672.22346401 C556.8749613 670.9600852 556.87297043 669.69670639 556.87091923 668.39504337 C556.87377185 666.97563725 556.87671725 665.55623132 556.87974548 664.13682556 C556.87930849 662.64640789 556.87843237 661.1559903 556.87715149 659.66557312 C556.87489637 655.5421641 556.8789384 651.41878079 556.88392727 647.29537503 C556.88827458 642.79100786 556.88683394 638.28664199 556.88610935 633.78227329 C556.88557632 625.02699047 556.89020696 616.27171785 556.89661068 607.51643765 C556.90379263 597.39543821 556.90460444 587.27444494 556.90539551 577.15344238 C556.91065223 550.4147933 556.92461325 523.6761465 556.9375 496.9375 C556.958125 437.228125 556.97875 377.51875 557 316 C786.02 316 1015.04 316 1251 316 C1251 626.2 1251 936.4 1251 1256 C1377.39 1256 1503.78 1256 1634 1256 C1634 899.93 1634 543.86 1634 177 C1152.2 177 670.4 177 174 177 C174 662.76 174 1148.52 174 1649 C713.22 1649 1252.44 1649 1808 1649 C1808 1707.08 1808 1765.16 1808 1825 C1211.36 1825 614.72 1825 0 1825 C0 1222.75 0 620.5 0 0 Z " fill="#FEFEFE" transform="translate(729,729)"/>
<path d="M0 0 C0 76.56 0 153.12 0 232 C-67.32 232 -134.64 232 -204 232 C-204.350625 212.90125 -204.70125 193.8025 -205.0625 174.125 C-205.21726807 168.10781738 -205.37203613 162.09063477 -205.53149414 155.89111328 C-205.60827637 148.50952148 -205.60827637 148.50952148 -205.62254333 145.04733276 C-205.64855172 142.64306065 -205.70815417 140.23900277 -205.79478455 137.83615112 C-206.47234219 118.04319198 -206.47234219 118.04319198 -202.34394455 112.96157074 C-198.32681188 109.6136029 -193.91619834 107.59480349 -189.03802299 105.8029747 C-186.18376296 104.67840515 -183.7262367 103.08124828 -181.1875 101.375 C-177.8873508 99.26056812 -177.15050175 99 -173 99 C-173 98.34 -173 97.68 -173 97 C-170 95 -170 95 -166 95 C-166 94.34 -166 93.68 -166 93 C-163 91 -163 91 -159 91 C-159 90.34 -159 89.68 -159 89 C-156 87 -156 87 -152 87 C-152 86.34 -152 85.68 -152 85 C-149 83 -149 83 -145 83 C-145 82.34 -145 81.68 -145 81 C-142 79 -142 79 -138 79 C-138 78.34 -138 77.68 -138 77 C-135 75 -135 75 -131 75 C-131 74.34 -131 73.68 -131 73 C-128 71 -128 71 -124 71 C-124 70.34 -124 69.68 -124 69 C-121 67 -121 67 -117 67 C-117 66.34 -117 65.68 -117 65 C-116.36835937 64.64921387 -115.73671875 64.29842773 -115.0859375 63.93701172 C-103.32571989 57.39814433 -91.6034648 50.81384249 -80 44 C-71.88583879 39.23566076 -63.72199344 34.57572364 -55.5 30 C-47.090907 25.32010552 -38.74077229 20.55273459 -30.4375 15.6875 C-15.57030031 6.98728287 -15.57030031 6.98728287 -9.6875 3.625 C-9.04159912 3.24947998 -8.39569824 2.87395996 -7.73022461 2.48706055 C-4.92210658 0.89380482 -3.28737916 0 0 0 Z " fill="#020202" transform="translate(1736,1754)"/>
<path d="M0 0 C596.64 0 1193.28 0 1808 0 C1808 495 1808 990 1808 1500 C1395.17 1500 982.34 1500 557 1500 C557 1335 557 1170 557 1000 C557.99 999.67 558.98 999.34 560 999 C559.67 999.99 559.34 1000.98 559 1002 C558.67 1166.01 558.34 1330.02 558 1499 C970.17 1499 1382.34 1499 1807 1499 C1807 1004.99 1807 510.98 1807 2 C1211.02 2 615.04 2 1 2 C1 603.26 1 1204.52 1 1824 C596.98 1824 1192.96 1824 1807 1824 C1807 1766.58 1807 1709.16 1807 1650 C1267.78 1650 728.56 1650 173 1650 C173 1163.58 173 677.16 173 176 C655.46 176 1137.92 176 1635 176 C1635 532.73 1635 889.46 1635 1257 C1508.28 1257 1381.56 1257 1251 1257 C1251 1256.67 1251 1256.34 1251 1256 C1377.39 1256 1503.78 1256 1634 1256 C1634 899.93 1634 543.86 1634 177 C1152.2 177 670.4 177 174 177 C174 662.76 174 1148.52 174 1649 C713.22 1649 1252.44 1649 1808 1649 C1808 1707.08 1808 1765.16 1808 1825 C1211.36 1825 614.72 1825 0 1825 C0 1222.75 0 620.5 0 0 Z " fill="#747474" transform="translate(729,729)"/>
<path d="M0 0 C596.31 0 1192.62 0 1807 0 C1807 494.67 1807 989.34 1807 1499 C1394.17 1499 981.34 1499 556 1499 C556 1334 556 1169 556 999 C556.99 998.67 557.98 998.34 559 998 C558.67 998.99 558.34 999.98 558 1001 C557.67 1165.01 557.34 1329.02 557 1498 C969.17 1498 1381.34 1498 1806 1498 C1806 1003.99 1806 509.98 1806 1 C1210.02 1 614.04 1 0 1 C0 0.67 0 0.34 0 0 Z " fill="#BABABA" transform="translate(730,730)"/>
<path d="M0 0 C0.66 0 1.32 0 2 0 C1.67 0.99 1.34 1.98 1 3 C0.67 167.01 0.34 331.02 0 500 C412.17 500 824.34 500 1249 500 C1249 500.33 1249 500.66 1249 501 C836.5 501 424 501 -1 501 C-1 1 -1 1 0 0 Z " fill="#CECECE" transform="translate(1287,1728)"/>
<path d="M0 0 C0.66 0 1.32 0 2 0 C1.67 0.99 1.34 1.98 1 3 C0.90023549 5.71876396 0.85781272 8.41200148 0.8613348 11.13097668 C0.85849258 11.97355993 0.85565036 12.81614319 0.85272202 13.68425927 C0.84434199 16.53245105 0.84310422 19.38060235 0.84178162 22.22880554 C0.83721852 24.28142148 0.83221887 26.33403648 0.82681805 28.38665038 C0.81319883 34.04645248 0.80580766 39.70624854 0.79939139 45.36606276 C0.79140402 51.46218871 0.77770055 57.55830205 0.76467896 63.65441895 C0.74289255 74.22279691 0.72472142 84.79117546 0.70907402 95.35956383 C0.69264442 106.44607714 0.67416648 117.53258391 0.65294075 128.61908913 C0.65162314 129.30789726 0.65030554 129.99670539 0.648948 130.70638649 C0.6422461 134.20436199 0.63550749 137.70233743 0.62875474 141.20031283 C0.58096613 165.98941119 0.53778846 190.77851566 0.49731445 215.56762695 C0.45797907 239.65291793 0.41656007 263.73820385 0.37231445 287.82348633 C0.37095192 288.56563754 0.36958939 289.30778875 0.36818558 290.07242939 C0.35450044 297.52528036 0.34077288 304.97813126 0.32701423 312.4309821 C0.29898618 327.61388447 0.2712413 342.79678735 0.2436676 357.97969055 C0.2423994 358.67780668 0.2411312 359.3759228 0.23982458 360.09519396 C0.15513995 406.73012111 0.07707764 453.36505972 0 500 C-0.33 500 -0.66 500 -1 500 C-1.01710972 452.44099508 -1.03303145 404.88198993 -1.04234314 357.32298279 C-1.0424812 356.61966181 -1.04261925 355.91634084 -1.04276149 355.1917071 C-1.04575405 339.90850892 -1.04852428 324.62531071 -1.05106533 309.34211246 C-1.05231272 301.84778525 -1.05360927 294.35345805 -1.05493164 286.85913086 C-1.0550624 286.11333511 -1.05519316 285.36753937 -1.05532788 284.59914375 C-1.05959308 260.40372938 -1.06710725 236.20831733 -1.07629722 212.01290437 C-1.08572003 187.15947003 -1.09188317 162.30603699 -1.09391499 137.4526009 C-1.09420317 133.94630014 -1.0945288 130.4399994 -1.09487724 126.93369865 C-1.09494467 126.24357399 -1.09501209 125.55344932 -1.09508156 124.84241178 C-1.0962656 113.71064517 -1.10090991 102.57888252 -1.10683203 91.44711753 C-1.1127052 80.26966953 -1.11489027 69.09222542 -1.11350138 57.91477556 C-1.11285766 51.85302447 -1.1138793 45.79128509 -1.11920547 39.72953606 C-1.12403764 34.18992813 -1.12433987 28.65033991 -1.12089889 23.11073112 C-1.12047302 21.09726729 -1.12177029 19.08380228 -1.12488318 17.07034082 C-1.12884411 14.35224104 -1.12676531 11.6342142 -1.12304783 8.91611576 C-1.12567484 8.1181744 -1.12830186 7.32023304 -1.13100848 6.49811164 C-1.1141458 1.1141458 -1.1141458 1.1141458 0 0 Z " fill="#DADADA" transform="translate(1287,1728)"/>
<path d="M0 0 C0.66 0 1.32 0 2 0 C1.67 0.99 1.34 1.98 1 3 C0.89941724 4.54785911 0.85383216 6.09960365 0.84178162 7.65068054 C0.83200759 8.60362094 0.82223356 9.55656134 0.81216335 10.53837872 C0.8063931 11.58620934 0.80062284 12.63403997 0.79467773 13.71362305 C0.78464501 14.83406163 0.77461229 15.95450022 0.76427555 17.10889149 C0.73284177 20.74314606 0.70809919 24.37741153 0.68359375 28.01171875 C0.66519482 30.25248576 0.64635838 32.49324922 0.6270752 34.73400879 C0.55857459 43.05179717 0.49855574 51.36965364 0.4375 59.6875 C0.293125 78.270625 0.14875 96.85375 0 116 C66.66 116 133.32 116 202 116 C202 116.33 202 116.66 202 117 C135.01 117 68.02 117 -1 117 C-1.020625 97.880625 -1.04125 78.76125 -1.0625 59.0625 C-1.071604 53.01558838 -1.08070801 46.96867676 -1.09008789 40.73852539 C-1.09460449 33.37976074 -1.09460449 33.37976074 -1.09544373 29.93968201 C-1.0969838 27.52639075 -1.10051 25.11310028 -1.10557556 22.69981384 C-1.1128489 19.05384983 -1.11390756 15.40793302 -1.11352539 11.76196289 C-1.1171235 10.67883096 -1.12072161 9.59569902 -1.12442875 8.47974491 C-1.12305125 7.50436992 -1.12167376 6.52899492 -1.12025452 5.52406311 C-1.12117631 4.66956101 -1.1220981 3.81505892 -1.12304783 2.93466282 C-1 1 -1 1 0 0 Z " fill="#1C1C1C" transform="translate(1533,1868)"/>
<path d="M0 0 C0.66 0 1.32 0 2 0 C1.67 0.99 1.34 1.98 1 3 C0.8993308 4.56052736 0.8538235 6.12491971 0.84178162 7.68864441 C0.8319928 8.65198196 0.82220398 9.61531952 0.81211853 10.60784912 C0.80636307 11.66304749 0.8006076 12.71824585 0.79467773 13.80541992 C0.78477814 14.91776505 0.77487854 16.03011017 0.76467896 17.17616272 C0.73303614 20.86090958 0.70829543 24.54566935 0.68359375 28.23046875 C0.66302663 30.78209269 0.64203023 33.33371319 0.62062073 35.8853302 C0.57102484 41.92008922 0.52576599 47.95486577 0.48259836 53.98967296 C0.43321103 60.86025979 0.37829845 67.73079896 0.32291877 74.6013397 C0.20912559 88.73418199 0.10228075 102.86707004 0 117 C-0.33 117 -0.66 117 -1 117 C-1.02332969 101.89275309 -1.04097952 86.78550757 -1.05181217 71.6782465 C-1.05697498 64.66415366 -1.06401739 57.650072 -1.07543945 50.63598633 C-1.08644688 43.87331932 -1.09227619 37.11066636 -1.09487724 30.34799004 C-1.09673203 27.7614772 -1.10035367 25.17496503 -1.10573006 22.58845711 C-1.11293651 18.97961145 -1.11399111 15.37081453 -1.11352539 11.76196289 C-1.11712067 10.6808725 -1.12071594 9.5997821 -1.12442017 8.4859314 C-1.1230455 7.50851486 -1.12167084 6.53109833 -1.12025452 5.52406311 C-1.12117631 4.66956101 -1.1220981 3.81505892 -1.12304783 2.93466282 C-1 1 -1 1 0 0 Z " fill="#4D4D4D" transform="translate(1533,1868)"/>
</svg>
